<svg width="291" height="43" viewBox="0 0 291 43" fill="none" xmlns="http://www.w3.org/2000/svg">
<path d="M12.24 10.8C14.568 10.8 16.464 11.028 17.928 11.484C19.392 11.94 20.46 12.708 21.132 13.788C21.828 14.844 22.176 16.344 22.176 18.288C22.176 19.344 22.02 20.304 21.708 21.168C21.42 22.032 20.916 22.74 20.196 23.292C19.476 23.82 18.492 24.156 17.244 24.3V24.516C17.7 24.564 18.18 24.708 18.684 24.948C19.212 25.188 19.692 25.584 20.124 26.136C20.58 26.664 20.904 27.396 21.096 28.332L23.148 36H16.056L14.292 28.548C14.124 27.78 13.86 27.276 13.5 27.036C13.14 26.772 12.612 26.64 11.916 26.64C10.188 26.616 8.76 26.604 7.632 26.604C6.504 26.604 5.544 26.592 4.752 26.568C3.984 26.544 3.252 26.508 2.556 26.46L2.664 21.744H12.096C12.96 21.744 13.62 21.66 14.076 21.492C14.556 21.324 14.892 21.024 15.084 20.592C15.276 20.136 15.372 19.512 15.372 18.72C15.372 17.904 15.276 17.28 15.084 16.848C14.892 16.416 14.556 16.116 14.076 15.948C13.62 15.78 12.96 15.696 12.096 15.696C9.72 15.696 7.704 15.708 6.048 15.732C4.416 15.756 3.3 15.792 2.7 15.84L2.16 11.16C3.216 11.04 4.212 10.956 5.148 10.908C6.084 10.86 7.104 10.836 8.208 10.836C9.336 10.812 10.68 10.8 12.24 10.8ZM8.784 11.16V36H2.16V11.16H8.784ZM36.2945 10.656C38.3585 10.656 40.0985 10.86 41.5145 11.268C42.9305 11.676 44.0825 12.372 44.9705 13.356C45.8585 14.316 46.4945 15.624 46.8785 17.28C47.2625 18.936 47.4545 21.036 47.4545 23.58C47.4545 26.1 47.2625 28.2 46.8785 29.88C46.4945 31.536 45.8585 32.856 44.9705 33.84C44.0825 34.8 42.9305 35.484 41.5145 35.892C40.0985 36.3 38.3585 36.504 36.2945 36.504C34.2545 36.504 32.5145 36.3 31.0745 35.892C29.6585 35.484 28.5065 34.8 27.6185 33.84C26.7305 32.856 26.0945 31.536 25.7105 29.88C25.3265 28.2 25.1345 26.1 25.1345 23.58C25.1345 21.036 25.3265 18.936 25.7105 17.28C26.0945 15.624 26.7305 14.316 27.6185 13.356C28.5065 12.372 29.6585 11.676 31.0745 11.268C32.5145 10.86 34.2545 10.656 36.2945 10.656ZM36.2945 15.804C35.2385 15.804 34.4105 16.02 33.8105 16.452C33.2345 16.884 32.8265 17.664 32.5865 18.792C32.3465 19.92 32.2265 21.516 32.2265 23.58C32.2265 25.644 32.3465 27.24 32.5865 28.368C32.8265 29.496 33.2345 30.276 33.8105 30.708C34.4105 31.14 35.2385 31.356 36.2945 31.356C37.3505 31.356 38.1665 31.14 38.7425 30.708C39.3425 30.276 39.7505 29.496 39.9665 28.368C40.2065 27.24 40.3265 25.644 40.3265 23.58C40.3265 21.516 40.2065 19.92 39.9665 18.792C39.7505 17.664 39.3425 16.884 38.7425 16.452C38.1665 16.02 37.3505 15.804 36.2945 15.804ZM63.0571 11.16V36H56.2891V11.16H63.0571ZM70.2211 11.16V16.308H49.0891V11.16H70.2211ZM78.2592 11.052C79.6512 11.052 81.0672 11.052 82.5072 11.052C83.9712 11.052 85.3992 11.088 86.7912 11.16C88.2072 11.208 89.5032 11.304 90.6792 11.448L90.3552 16.272H81.0672C80.5392 16.272 80.1312 16.416 79.8432 16.704C79.5552 16.968 79.4112 17.34 79.4112 17.82V29.34C79.4112 29.82 79.5552 30.204 79.8432 30.492C80.1312 30.756 80.5392 30.888 81.0672 30.888H90.3552L90.6792 35.712C89.5032 35.832 88.2072 35.928 86.7912 36C85.3992 36.048 83.9712 36.072 82.5072 36.072C81.0672 36.096 79.6512 36.108 78.2592 36.108C76.6032 36.108 75.2592 35.616 74.2272 34.632C73.1952 33.648 72.6792 32.364 72.6792 30.78V16.38C72.6792 14.772 73.1952 13.488 74.2272 12.528C75.2592 11.544 76.6032 11.052 78.2592 11.052ZM73.3272 20.916H89.0592V25.488H73.3272V20.916ZM104.103 10.8C106.431 10.8 108.327 11.028 109.791 11.484C111.255 11.94 112.323 12.708 112.995 13.788C113.691 14.844 114.039 16.344 114.039 18.288C114.039 19.344 113.883 20.304 113.571 21.168C113.283 22.032 112.779 22.74 112.059 23.292C111.339 23.82 110.355 24.156 109.107 24.3V24.516C109.563 24.564 110.043 24.708 110.547 24.948C111.075 25.188 111.555 25.584 111.987 26.136C112.443 26.664 112.767 27.396 112.959 28.332L115.011 36H107.919L106.155 28.548C105.987 27.78 105.723 27.276 105.363 27.036C105.003 26.772 104.475 26.64 103.779 26.64C102.051 26.616 100.623 26.604 99.4953 26.604C98.3673 26.604 97.4073 26.592 96.6153 26.568C95.8473 26.544 95.1153 26.508 94.4193 26.46L94.5273 21.744H103.959C104.823 21.744 105.483 21.66 105.939 21.492C106.419 21.324 106.755 21.024 106.947 20.592C107.139 20.136 107.235 19.512 107.235 18.72C107.235 17.904 107.139 17.28 106.947 16.848C106.755 16.416 106.419 16.116 105.939 15.948C105.483 15.78 104.823 15.696 103.959 15.696C101.583 15.696 99.5673 15.708 97.9113 15.732C96.2793 15.756 95.1633 15.792 94.5633 15.84L94.0233 11.16C95.0793 11.04 96.0753 10.956 97.0113 10.908C97.9473 10.86 98.9673 10.836 100.071 10.836C101.199 10.812 102.543 10.8 104.103 10.8ZM100.647 11.16V36H94.0233V11.16H100.647Z" fill="#FCCA29"/>
</svg>
