<svg width="291" height="43" viewBox="0 0 291 43" fill="none" xmlns="http://www.w3.org/2000/svg">
<path d="M12.24 10.8C14.568 10.8 16.464 11.028 17.928 11.484C19.392 11.94 20.46 12.708 21.132 13.788C21.828 14.844 22.176 16.344 22.176 18.288C22.176 19.344 22.02 20.304 21.708 21.168C21.42 22.032 20.916 22.74 20.196 23.292C19.476 23.82 18.492 24.156 17.244 24.3V24.516C17.7 24.564 18.18 24.708 18.684 24.948C19.212 25.188 19.692 25.584 20.124 26.136C20.58 26.664 20.904 27.396 21.096 28.332L23.148 36H16.056L14.292 28.548C14.124 27.78 13.86 27.276 13.5 27.036C13.14 26.772 12.612 26.64 11.916 26.64C10.188 26.616 8.76 26.604 7.632 26.604C6.504 26.604 5.544 26.592 4.752 26.568C3.984 26.544 3.252 26.508 2.556 26.46L2.664 21.744H12.096C12.96 21.744 13.62 21.66 14.076 21.492C14.556 21.324 14.892 21.024 15.084 20.592C15.276 20.136 15.372 19.512 15.372 18.72C15.372 17.904 15.276 17.28 15.084 16.848C14.892 16.416 14.556 16.116 14.076 15.948C13.62 15.78 12.96 15.696 12.096 15.696C9.72 15.696 7.704 15.708 6.048 15.732C4.416 15.756 3.3 15.792 2.7 15.84L2.16 11.16C3.216 11.04 4.212 10.956 5.148 10.908C6.084 10.86 7.104 10.836 8.208 10.836C9.336 10.812 10.68 10.8 12.24 10.8ZM8.784 11.16V36H2.16V11.16H8.784ZM36.2945 10.656C38.3585 10.656 40.0985 10.86 41.5145 11.268C42.9305 11.676 44.0825 12.372 44.9705 13.356C45.8585 14.316 46.4945 15.624 46.8785 17.28C47.2625 18.936 47.4545 21.036 47.4545 23.58C47.4545 26.1 47.2625 28.2 46.8785 29.88C46.4945 31.536 45.8585 32.856 44.9705 33.84C44.0825 34.8 42.9305 35.484 41.5145 35.892C40.0985 36.3 38.3585 36.504 36.2945 36.504C34.2545 36.504 32.5145 36.3 31.0745 35.892C29.6585 35.484 28.5065 34.8 27.6185 33.84C26.7305 32.856 26.0945 31.536 25.7105 29.88C25.3265 28.2 25.1345 26.1 25.1345 23.58C25.1345 21.036 25.3265 18.936 25.7105 17.28C26.0945 15.624 26.7305 14.316 27.6185 13.356C28.5065 12.372 29.6585 11.676 31.0745 11.268C32.5145 10.86 34.2545 10.656 36.2945 10.656ZM36.2945 15.804C35.2385 15.804 34.4105 16.02 33.8105 16.452C33.2345 16.884 32.8265 17.664 32.5865 18.792C32.3465 19.92 32.2265 21.516 32.2265 23.58C32.2265 25.644 32.3465 27.24 32.5865 28.368C32.8265 29.496 33.2345 30.276 33.8105 30.708C34.4105 31.14 35.2385 31.356 36.2945 31.356C37.3505 31.356 38.1665 31.14 38.7425 30.708C39.3425 30.276 39.7505 29.496 39.9665 28.368C40.2065 27.24 40.3265 25.644 40.3265 23.58C40.3265 21.516 40.2065 19.92 39.9665 18.792C39.7505 17.664 39.3425 16.884 38.7425 16.452C38.1665 16.02 37.3505 15.804 36.2945 15.804ZM63.0571 11.16V36H56.2891V11.16H63.0571ZM70.2211 11.16V16.308H49.0891V11.16H70.2211ZM78.2592 11.052C79.6512 11.052 81.0672 11.052 82.5072 11.052C83.9712 11.052 85.3992 11.088 86.7912 11.16C88.2072 11.208 89.5032 11.304 90.6792 11.448L90.3552 16.272H81.0672C80.5392 16.272 80.1312 16.416 79.8432 16.704C79.5552 16.968 79.4112 17.34 79.4112 17.82V29.34C79.4112 29.82 79.5552 30.204 79.8432 30.492C80.1312 30.756 80.5392 30.888 81.0672 30.888H90.3552L90.6792 35.712C89.5032 35.832 88.2072 35.928 86.7912 36C85.3992 36.048 83.9712 36.072 82.5072 36.072C81.0672 36.096 79.6512 36.108 78.2592 36.108C76.6032 36.108 75.2592 35.616 74.2272 34.632C73.1952 33.648 72.6792 32.364 72.6792 30.78V16.38C72.6792 14.772 73.1952 13.488 74.2272 12.528C75.2592 11.544 76.6032 11.052 78.2592 11.052ZM73.3272 20.916H89.0592V25.488H73.3272V20.916ZM104.103 10.8C106.431 10.8 108.327 11.028 109.791 11.484C111.255 11.94 112.323 12.708 112.995 13.788C113.691 14.844 114.039 16.344 114.039 18.288C114.039 19.344 113.883 20.304 113.571 21.168C113.283 22.032 112.779 22.74 112.059 23.292C111.339 23.82 110.355 24.156 109.107 24.3V24.516C109.563 24.564 110.043 24.708 110.547 24.948C111.075 25.188 111.555 25.584 111.987 26.136C112.443 26.664 112.767 27.396 112.959 28.332L115.011 36H107.919L106.155 28.548C105.987 27.78 105.723 27.276 105.363 27.036C105.003 26.772 104.475 26.64 103.779 26.64C102.051 26.616 100.623 26.604 99.4953 26.604C98.3673 26.604 97.4073 26.592 96.6153 26.568C95.8473 26.544 95.1153 26.508 94.4193 26.46L94.5273 21.744H103.959C104.823 21.744 105.483 21.66 105.939 21.492C106.419 21.324 106.755 21.024 106.947 20.592C107.139 20.136 107.235 19.512 107.235 18.72C107.235 17.904 107.139 17.28 106.947 16.848C106.755 16.416 106.419 16.116 105.939 15.948C105.483 15.78 104.823 15.696 103.959 15.696C101.583 15.696 99.5673 15.708 97.9113 15.732C96.2793 15.756 95.1633 15.792 94.5633 15.84L94.0233 11.16C95.0793 11.04 96.0753 10.956 97.0113 10.908C97.9473 10.86 98.9673 10.836 100.071 10.836C101.199 10.812 102.543 10.8 104.103 10.8ZM100.647 11.16V36H94.0233V11.16H100.647Z" fill="#FCCA29"/>
<path d="M134.688 14.92V28.552C134.688 30.6853 134.432 32.4027 133.92 33.704C133.408 35.0053 132.576 35.9547 131.424 36.552C130.272 37.128 128.725 37.416 126.784 37.416C124.8 37.416 123.211 37.128 122.016 36.552C120.821 35.9547 119.957 35.0053 119.424 33.704C118.891 32.4027 118.624 30.6853 118.624 28.552V14.92H121.44V28.552C121.44 30.1307 121.6 31.3893 121.92 32.328C122.261 33.2453 122.816 33.9067 123.584 34.312C124.352 34.696 125.376 34.888 126.656 34.888C127.936 34.888 128.949 34.696 129.696 34.312C130.464 33.9067 131.019 33.2453 131.36 32.328C131.701 31.3893 131.872 30.1307 131.872 28.552V14.92H134.688ZM157.089 14.92V35.88C157.089 36.6267 156.726 37 156.001 37H153.249C152.929 37 152.673 36.9253 152.481 36.776C152.289 36.6267 152.129 36.4027 152.001 36.104L144.545 20.456C144.353 20.0293 144.129 19.5493 143.873 19.016C143.617 18.4827 143.425 17.992 143.297 17.544H142.785C142.827 18.0133 142.859 18.4933 142.881 18.984C142.902 19.4747 142.913 19.9653 142.913 20.456V37H140.097V16.04C140.097 15.2933 140.47 14.92 141.217 14.92H143.873C144.193 14.92 144.449 14.9947 144.641 15.144C144.833 15.2933 144.993 15.5173 145.121 15.816L152.353 31.08C152.587 31.528 152.833 32.04 153.089 32.616C153.366 33.1707 153.622 33.7253 153.857 34.28H154.401C154.379 33.704 154.358 33.1387 154.337 32.584C154.315 32.0293 154.305 31.4747 154.305 30.92V14.92H157.089ZM183.523 14.92C184.291 14.92 184.675 15.3147 184.675 16.104L185.603 37H182.787L181.987 17.256H181.315L176.387 33.544C176.216 34.184 175.811 34.504 175.171 34.504H172.643C171.982 34.504 171.555 34.184 171.363 33.544L166.435 17.256H165.795L165.027 37H162.211L163.075 16.104C163.118 15.3147 163.512 14.92 164.259 14.92H167.459C168.056 14.92 168.451 15.24 168.643 15.88L172.771 29.352C172.942 29.8427 173.08 30.3333 173.187 30.824C173.315 31.3147 173.454 31.816 173.603 32.328H174.179C174.328 31.816 174.467 31.3147 174.595 30.824C174.723 30.3333 174.862 29.8213 175.011 29.288L179.139 15.88C179.31 15.24 179.715 14.92 180.355 14.92H183.523ZM199.362 14.92C199.618 14.92 199.842 14.9947 200.034 15.144C200.226 15.272 200.354 15.4533 200.418 15.688L207.522 37H204.61L198.882 18.888C198.796 18.5893 198.7 18.2907 198.594 17.992C198.508 17.672 198.423 17.3733 198.338 17.096H197.442C197.356 17.3733 197.271 17.672 197.186 17.992C197.1 18.2907 197.004 18.5893 196.898 18.888L191.17 37H188.258L195.362 15.688C195.426 15.4533 195.554 15.272 195.746 15.144C195.938 14.9947 196.162 14.92 196.418 14.92H199.362ZM203.458 27.656V30.088H192.258V27.656H203.458ZM227.62 14.92V35.88C227.62 36.6267 227.257 37 226.532 37H223.78C223.46 37 223.204 36.9253 223.012 36.776C222.82 36.6267 222.66 36.4027 222.532 36.104L215.076 20.456C214.884 20.0293 214.66 19.5493 214.404 19.016C214.148 18.4827 213.956 17.992 213.828 17.544H213.316C213.358 18.0133 213.39 18.4933 213.412 18.984C213.433 19.4747 213.444 19.9653 213.444 20.456V37H210.628V16.04C210.628 15.2933 211.001 14.92 211.748 14.92H214.404C214.724 14.92 214.98 14.9947 215.172 15.144C215.364 15.2933 215.524 15.5173 215.652 15.816L222.884 31.08C223.118 31.528 223.364 32.04 223.62 32.616C223.897 33.1707 224.153 33.7253 224.388 34.28H224.932C224.91 33.704 224.889 33.1387 224.868 32.584C224.846 32.0293 224.836 31.4747 224.836 30.92V14.92H227.62ZM250.182 14.92V35.88C250.182 36.6267 249.82 37 249.094 37H246.342C246.022 37 245.766 36.9253 245.574 36.776C245.382 36.6267 245.222 36.4027 245.094 36.104L237.638 20.456C237.446 20.0293 237.222 19.5493 236.966 19.016C236.71 18.4827 236.518 17.992 236.39 17.544H235.878C235.921 18.0133 235.953 18.4933 235.974 18.984C235.996 19.4747 236.006 19.9653 236.006 20.456V37H233.19V16.04C233.19 15.2933 233.564 14.92 234.31 14.92H236.966C237.286 14.92 237.542 14.9947 237.734 15.144C237.926 15.2933 238.086 15.5173 238.214 15.816L245.446 31.08C245.681 31.528 245.926 32.04 246.182 32.616C246.46 33.1707 246.716 33.7253 246.95 34.28H247.494C247.473 33.704 247.452 33.1387 247.43 32.584C247.409 32.0293 247.398 31.4747 247.398 30.92V14.92H250.182ZM259.817 14.888C260.883 14.888 261.95 14.888 263.017 14.888C264.105 14.888 265.171 14.9093 266.217 14.952C267.283 14.9733 268.307 15.016 269.289 15.08L269.161 17.288H260.297C259.635 17.288 259.145 17.4587 258.825 17.8C258.526 18.12 258.377 18.6533 258.377 19.4V32.52C258.377 33.2667 258.526 33.8107 258.825 34.152C259.145 34.4933 259.635 34.664 260.297 34.664H269.161L269.289 36.84C268.307 36.904 267.283 36.9467 266.217 36.968C265.171 36.9893 264.105 37 263.017 37C261.95 37.0213 260.883 37.032 259.817 37.032C258.515 37.032 257.481 36.6907 256.713 36.008C255.966 35.304 255.582 34.3653 255.561 33.192V18.728C255.582 17.5333 255.966 16.5947 256.713 15.912C257.481 15.2293 258.515 14.888 259.817 14.888ZM256.137 24.2H267.913V26.472H256.137V24.2ZM281.531 14.632C283.11 14.632 284.443 14.824 285.531 15.208C286.64 15.592 287.526 16.2213 288.187 17.096C288.87 17.9707 289.36 19.1333 289.659 20.584C289.979 22.0347 290.139 23.8267 290.139 25.96C290.139 28.0933 289.979 29.8853 289.659 31.336C289.36 32.7867 288.87 33.9493 288.187 34.824C287.526 35.6987 286.64 36.328 285.531 36.712C284.443 37.096 283.11 37.288 281.531 37.288C280.016 37.288 278.608 37.256 277.307 37.192C276.027 37.1493 274.811 37.0853 273.659 37L274.875 34.696C275.771 34.7173 276.763 34.7493 277.851 34.792C278.96 34.8133 280.187 34.824 281.531 34.824C282.939 34.824 284.059 34.5573 284.891 34.024C285.723 33.4693 286.31 32.552 286.651 31.272C287.014 29.9707 287.195 28.2 287.195 25.96C287.195 23.72 287.014 21.96 286.651 20.68C286.31 19.3787 285.723 18.4507 284.891 17.896C284.059 17.3413 282.939 17.064 281.531 17.064C280.208 17.064 279.014 17.0747 277.947 17.096C276.902 17.1173 275.878 17.1387 274.875 17.16L273.659 14.92C274.811 14.8347 276.027 14.7707 277.307 14.728C278.608 14.664 280.016 14.632 281.531 14.632ZM276.475 14.92V37H273.659V14.92H276.475Z" fill="white"/>
</svg>
